<?xml version="1.0" standalone="no"?><!DOCTYPE svg PUBLIC "-//W3C//DTD SVG 1.1//EN" "http://www.w3.org/Graphics/SVG/1.1/DTD/svg11.dtd">
<svg t="1700232478661" class="icon" viewBox="0 0 1024 1024" version="1.1" xmlns="http://www.w3.org/2000/svg" p-id="8964"
     width="200" height="200"><path d="M866.305622 147.096482l9.613392 8.339328c9.613392 8.339328 10.771632 23.048976 2.432304 32.662369L517.675376 607.149417c-8.339328 9.613392-23.048976 10.771632-32.662368 2.432305l-9.613393-8.339329c-9.613392-8.339328-10.771632-23.048976-2.432304-32.662368L833.759077 149.412962c8.223504-9.497568 22.933152-10.655808 32.546545-2.31648z" fill="#896C63" p-id="8965"></path><path d="M797.506164 298.246805c-3.706368 0-7.52856-1.274064-10.539984-3.938016-6.833616-5.7912-7.52856-16.099536-1.73736-22.817329l80.960978-94.049089c2.432304-2.8956 2.084832-7.296912-0.694944-9.84504l-9.613393-8.339329c-1.853184-1.621536-3.938016-1.73736-5.096256-1.621536-1.042416 0.115824-3.127248 0.463296-4.748784 2.31648L769.360932 249.021604c-5.7912 6.833616-16.099536 7.52856-22.817328 1.73736-6.833616-5.7912-7.52856-16.099536-1.73736-22.817328l76.675489-89.068658c6.833616-7.991856 16.447008-12.74064 26.871168-13.551408 10.539984-0.810768 20.616672 2.548128 28.608529 9.381744l9.613392 8.339328c16.447008 14.130528 18.300192 39.032689 4.169664 55.479697l-80.960977 94.04909c-3.127248 3.822192-7.760208 5.675376-12.277345 5.675376z" fill="" p-id="8966"></path><path d="M786.96618 19.342608l11.00328 6.37032c11.00328 6.37032 14.825472 20.616672 8.455153 31.619953L529.95272 536.265128c-6.37032 11.00328-20.616672 14.825472-31.619952 8.455153l-11.00328-6.370321c-11.00328-6.37032-14.825472-20.616672-8.455153-31.619952L755.346228 27.79776c6.37032-11.00328 20.616672-14.825472 31.619952-8.455152z" fill="#896C63" p-id="8967"></path><path d="M719.904083 223.424499c-2.779776 0-5.559552-0.694944-8.10768-2.200656-7.760208-4.517136-10.42416-14.362176-5.907024-22.122384l86.520529-149.876258c1.274064-2.084832 0.926592-4.169664 0.694944-5.21208-0.231648-1.042416-1.042416-3.011424-3.243072-4.169664l-11.00328-6.37032c-2.084832-1.274064-4.169664-0.926592-5.21208-0.694944s-3.011424 1.042416-4.285488 3.243072l-90.226897 156.362402c-4.517136 7.760208-14.362176 10.42416-22.122385 5.907024-7.760208-4.517136-10.42416-14.362176-5.907024-22.122384l90.226898-156.362403c5.21208-9.034272 13.783056-15.63624 23.975568-18.300192 10.192512-2.779776 20.732496-1.389888 29.882592 3.938016l11.003281 6.37032c9.034272 5.21208 15.63624 13.783056 18.300192 23.975569s1.389888 20.732496-3.938016 29.882592l-86.52053 149.876258c-3.011424 4.980432-8.570976 7.876032-14.130528 7.876032z" fill="" p-id="8968"></path><path d="M453.740527 24.32304c96.481394 0 174.778419 53.279041 174.778419 119.067074s-78.297025 95.902273-174.778419 95.902274" fill="#FFAA3B" p-id="8969"></path><path d="M351.236285 143.85341a118.37213 112.58093 90 1 0 225.16186 0 118.37213 112.58093 90 1 0-225.16186 0Z" fill="#FFD176" p-id="8970"></path><path d="M628.518946 197.132451c-8.918448 0-16.21536-7.296912-16.21536-16.21536C612.303586 99.029522 545.704785 32.430721 463.817215 32.430721c-70.536817 0-131.807714 50.151793-145.59077 119.298721-1.73736 8.802624-10.308336 14.478-19.11096 12.740641s-14.478-10.308336-12.740641-19.110961C303.169325 61.155073 377.759982 0 463.817215 0c99.724466 0 180.917091 81.192625 180.917091 180.917091 0 8.918448-7.296912 16.21536-16.21536 16.21536z" fill="" p-id="8971"></path><path d="M640.21717 194.700147c90.921841 0 164.585907 73.664065 164.585907 164.585907s-73.664065 164.585907-164.585907 164.585906" fill="#E0DEDE" p-id="8972"></path><path d="M527.752064 353.494854a147.212306 112.465106 90 1 0 224.930212 0 147.212306 112.465106 90 1 0-224.930212 0Z" fill="#FFFFFF" p-id="8973"></path><path d="M794.263092 433.529239c-1.853184 0-3.822192-0.347472-5.675376-1.042416-8.339328-3.127248-12.624816-12.508992-9.497568-20.848321 6.254496-16.678656 9.497568-34.283905 9.497568-52.352448 0-81.771745-66.598801-148.370546-148.370546-148.370547-38.916865 0-75.748897 14.941296-103.662482 42.159937-6.37032 6.254496-16.678656 6.138672-22.933152-0.231648s-6.138672-16.678656 0.231648-22.933152c33.936433-33.125665 78.760321-51.425857 126.248162-51.425857 99.724466 0 180.801267 81.076801 180.801267 180.801267 0 21.890736-3.938016 43.434001-11.5824 63.703201-2.31648 6.486144-8.455152 10.539984-15.057121 10.539984z" fill="" p-id="8974"></path><path d="M346.719149 148.48637c110.380274 0 199.796403 89.416129 199.796404 199.796403s-89.416129 199.796403-199.796404 199.796404" fill="#FF8E66" p-id="8975"></path><path d="M204.834747 341.333333a182.422803 141.884402 90 1 0 283.768805 0 182.422803 141.884402 90 1 0-283.768805 0Z" fill="#FFB685" p-id="8976"></path><path d="M523.119104 454.609207c-2.663952 0-5.327904-0.694944-7.760208-1.969008-7.876032-4.285488-10.771632-14.130528-6.37032-22.00656 14.941296-27.21864 21.311616-51.889153 21.311616-82.350866 0-32.546545-8.570976-64.513969-24.90216-92.427553-32.778193-56.174641-93.585793-91.153489-158.678883-91.153489-101.230178 0-183.581043 82.350865-183.581042 183.581042 0 34.631377 2.432304 49.688497 18.068544 76.328018 4.517136 7.760208 1.969008 17.605248-5.7912 22.238208-7.760208 4.517136-17.605248 1.969008-22.238209-5.7912C133.834634 407.932134 130.707386 386.620518 130.707386 348.282773c0-119.067074 96.94469-216.011763 216.011763-216.011763 38.453569 0 76.212193 10.192512 109.10621 29.535121 31.967424 18.763488 58.838593 45.634657 77.486257 77.602081 19.226784 32.894017 29.419296 70.536817 29.419297 108.758737 0 36.252913-7.52856 65.556385-25.365457 97.871282-2.8956 5.559552-8.455152 8.570976-14.246352 8.570976z" fill="" p-id="8977"></path><path d="M512.115824 722.625947h149.876258c9.034272 0 16.331184 5.21208 16.331185 11.5824L637.437394 996.086416c0 6.37032-7.412736 11.5824-16.331184 11.5824h-107.94797" fill="#E5B591" p-id="8978"></path><path d="M568.753761 1007.78464H406.136862c-5.443728 0-9.960864-5.21208-9.960864-11.5824L371.273838 734.324171c0-6.37032 4.517136-11.5824 9.960864-11.5824h212.537043c5.443728 0 9.960864 5.21208 9.960864 11.5824l-25.017984 261.762245c0 6.37032-4.401312 11.698224-9.960864 11.698224z" fill="#EDC8A4" p-id="8979"></path><path d="M621.10621 1024H353.784414c-17.605248 0-31.619952-11.466576-32.546545-26.292048l-40.770049-260.835652c-0.115824-0.810768-0.231648-1.621536-0.231648-2.548129 0-15.63624 14.362176-27.79776 32.546545-27.79776h349.093541c18.300192 0 32.546545 12.277344 32.546545 27.79776 0 0.810768-0.115824 1.621536-0.231648 2.548129l-40.770049 260.835652c-0.694944 14.825472-14.709648 26.292048-32.314896 26.292048zM353.08947 991.453455h268.711684l39.38016-252.612147H313.709309L353.08947 991.453455z" fill="" p-id="8980"></path><path d="M513.15824 499.896392h226.204276c14.362176 0 26.0604 4.05384 26.0604 9.150096l-39.032689 204.545187c0 4.980432-11.698224 9.034272-26.0604 9.034272H511.189232" fill="#E5B591" p-id="8981"></path><path d="M647.050786 722.625947H327.839837c-10.771632 0-19.574256-4.05384-19.574256-9.034272L278.962108 508.930664c0-4.980432 8.802624-9.150096 19.574257-9.150096h377.933718c10.771632 0 19.574256 4.05384 19.574256 9.150096L666.740866 713.475851c-0.115824 5.096256-8.918448 9.150096-19.69008 9.150096z" fill="#EDC8A4" p-id="8982"></path><path d="M700.329827 738.841308H274.560796c-24.90216 0-40.770049-8.918448-42.159936-23.280625L193.483995 512.057912c-0.231648-1.042416-0.231648-1.969008-0.231648-3.011424 0-15.63624 16.21536-25.365456 42.275761-25.365456h503.834408c26.0604 0 42.275761 9.729216 42.27576 25.365456 0 1.042416-0.115824 2.084832-0.231648 3.011424l-38.916864 203.502771c-1.389888 14.478-17.257776 23.280624-42.159937 23.280625z m-436.888135-33.588961c2.548128 0.57912 6.37032 1.15824 11.119104 1.15824h425.769031c4.864608 0 8.570976-0.57912 11.119104-1.15824l36.021265-188.561475c-2.200656-0.347472-4.864608-0.57912-8.10768-0.57912h-503.834408c-3.127248 0-5.907024 0.231648-8.10768 0.57912l36.021264 188.561475z" fill="" p-id="8983"></path><path d="M495.089696 432.255175H800.170117c19.11096 0 34.747201 15.63624 34.7472 34.7472s-15.63624 34.747201-34.7472 34.747201H488.371904" fill="#FFBF9C" p-id="8984"></path><path d="M724.884515 501.749576H250.006108c-19.11096 0-34.747201-15.63624-34.747201-34.747201s15.63624-34.747201 34.747201-34.7472h474.878407c19.11096 0 34.747201 15.63624 34.747201 34.7472s-15.63624 34.747201-34.747201 34.747201z" fill="#FFDFCA" p-id="8985"></path><path d="M800.170117 517.964936H174.720507c-28.145232 0-50.962561-22.817328-50.962561-50.962561s22.817328-50.962561 50.962561-50.96256h625.44961c28.145232 0 50.962561 22.817328 50.96256 50.96256s-22.817328 50.962561-50.96256 50.962561z m-625.44961-69.494401c-10.192512 0-18.53184 8.339328-18.531841 18.53184s8.339328 18.53184 18.531841 18.531841h625.44961c10.192512 0 18.53184-8.339328 18.53184-18.531841s-8.339328-18.53184-18.53184-18.53184H174.720507z" fill="" p-id="8986"></path></svg>
